<?xml version="1.0" standalone="no"?>
<!DOCTYPE svg PUBLIC "-//W3C//DTD SVG 20010904//EN"
 "http://www.w3.org/TR/2001/REC-SVG-20010904/DTD/svg10.dtd">
<svg version="1.0" xmlns="http://www.w3.org/2000/svg"
 width="32.000000pt" height="32.000000pt" viewBox="0 0 32.000000 32.000000"
 preserveAspectRatio="xMidYMid meet">

<g transform="translate(0.000000,32.000000) scale(0.100000,-0.100000)"
fill="#000000" stroke="none">
<path d="M78 287 c-17 -13 -28 -33 -28 -47 0 -19 3 -21 12 -12 16 16 110 16
126 0 9 -9 12 -5 12 19 0 60 -70 82 -122 40z"/>
<path d="M80 198 c0 -20 20 -24 37 -7 8 8 13 8 17 0 11 -18 36 -13 36 7 0 15
-8 19 -45 19 -37 0 -45 -4 -45 -19z m30 2 c0 -5 -4 -10 -10 -10 -5 0 -10 5
-10 10 0 6 5 10 10 10 6 0 10 -4 10 -10z m50 0 c0 -5 -4 -10 -10 -10 -5 0 -10
5 -10 10 0 6 5 10 10 10 6 0 10 -4 10 -10z"/>
<path d="M50 90 c0 -33 -4 -60 -10 -60 -5 0 -10 -4 -10 -10 0 -6 38 -10 95
-10 52 0 95 4 95 9 0 21 -13 41 -27 41 -11 0 -13 5 -8 18 4 9 10 29 13 45 l4
27 -76 0 -76 0 0 -60z m99 40 c27 -14 24 -59 -4 -72 -32 -15 -64 5 -62 37 3
38 32 54 66 35z m8 -97 c-20 -2 -52 -2 -70 0 -17 2 0 4 38 4 39 0 53 -2 32 -4z"/>
<path d="M120 94 c0 -8 5 -12 10 -9 6 4 8 11 5 16 -9 14 -15 11 -15 -7z"/>
<path d="M284 110 c0 -13 4 -16 10 -10 7 7 7 13 0 20 -6 6 -10 3 -10 -10z"/>
</g>
</svg>
